<svg version="1.1" xmlns="http://www.w3.org/2000/svg" xmlns:xlink="http://www.w3.org/1999/xlink">
    <symbol viewBox="0 0 10 7" id="icon-menu-arrow">
        <path fill-rule="evenodd" clip-rule="evenodd" d="M1.25 0L5 3.75L8.75 0L10 1.25L5 6.25L0 1.25L1.25 0Z" />
    </symbol>

    <symbol viewBox="0 0 20 20" id="icon-search">
        <path d="M19.3187 18.0273L13.232 11.9406C14.1766 10.7195 14.6875 9.22656 14.6875 7.65625C14.6875 5.77656 13.9539 4.01406 12.6273 2.68516C11.3008 1.35625 9.53359 0.625 7.65625 0.625C5.77891 0.625 4.01172 1.35859 2.68516 2.68516C1.35625 4.01172 0.625 5.77656 0.625 7.65625C0.625 9.53359 1.35859 11.3008 2.68516 12.6273C4.01172 13.9562 5.77656 14.6875 7.65625 14.6875C9.22656 14.6875 10.7172 14.1766 11.9383 13.2344L18.025 19.3187C18.0428 19.3366 18.064 19.3508 18.0874 19.3604C18.1107 19.3701 18.1357 19.3751 18.1609 19.3751C18.1862 19.3751 18.2112 19.3701 18.2345 19.3604C18.2578 19.3508 18.279 19.3366 18.2969 19.3187L19.3187 18.2992C19.3366 18.2814 19.3508 18.2602 19.3604 18.2369C19.3701 18.2135 19.3751 18.1885 19.3751 18.1633C19.3751 18.138 19.3701 18.113 19.3604 18.0897C19.3508 18.0664 19.3366 18.0452 19.3187 18.0273ZM11.3688 11.3688C10.375 12.3602 9.05781 12.9062 7.65625 12.9062C6.25469 12.9062 4.9375 12.3602 3.94375 11.3688C2.95234 10.375 2.40625 9.05781 2.40625 7.65625C2.40625 6.25469 2.95234 4.93516 3.94375 3.94375C4.9375 2.95234 6.25469 2.40625 7.65625 2.40625C9.05781 2.40625 10.3773 2.95 11.3688 3.94375C12.3602 4.9375 12.9062 6.25469 12.9062 7.65625C12.9062 9.05781 12.3602 10.3773 11.3688 11.3688Z" />
    </symbol>

    <symbol viewBox="0 0 20 20" id="icon-facebook">
        <path opacity="0.9" d="M20 3.30435C20 2.43478 19.6667 1.66667 19 1C18.3333 0.333333 17.5652 0 16.6957 0H3.30435C2.43478 0 1.66667 0.333333 1 1C0.333333 1.66667 0 2.43478 0 3.30435V16.6957C0 17.5652 0.333333 18.3333 1 19C1.66667 19.6667 2.43478 20 3.30435 20H10V12.4348H7.56522V9.13043H10V7.82609C10 6.69565 10.3696 5.7029 11.1087 4.84783C11.8478 3.99275 12.7246 3.56522 13.7391 3.56522H16.4348V6.86957H13.7391C13.5942 6.86957 13.4565 6.95652 13.3261 7.13043C13.1957 7.30435 13.1304 7.52174 13.1304 7.78261V9.13043H16.4348V12.4348H13.1304V20H16.6957C17.5652 20 18.3333 19.6667 19 19C19.6667 18.3333 20 17.5652 20 16.6957V3.30435Z" />
    </symbol>

    <symbol viewBox="0 0 22 20" id="icon-instagram">
        <path opacity="0.9" d="M11.2474 6.66525C9.31931 6.66525 7.74588 8.16376 7.74588 10C7.74588 11.8362 9.31931 13.3348 11.2474 13.3348C13.1754 13.3348 14.7489 11.8362 14.7489 10C14.7489 8.16376 13.1754 6.66525 11.2474 6.66525ZM21.7492 10C21.7492 8.61907 21.7623 7.25064 21.6809 5.87221C21.5995 4.27113 21.216 2.85017 19.9866 1.67938C18.7547 0.506085 17.2653 0.14334 15.5842 0.065788C14.1342 -0.0117644 12.6973 0.000744113 11.25 0.000744113C9.80001 0.000744113 8.36317 -0.0117644 6.91582 0.065788C5.23468 0.14334 3.74268 0.508587 2.51335 1.67938C1.28139 2.85267 0.900507 4.27113 0.819077 5.87221C0.737647 7.25314 0.750781 8.62157 0.750781 10C0.750781 11.3784 0.737647 12.7494 0.819077 14.1278C0.900507 15.7289 1.28402 17.1498 2.51335 18.3206C3.7453 19.4939 5.23468 19.8567 6.91582 19.9342C8.3658 20.0118 9.80264 19.9993 11.25 19.9993C12.7 19.9993 14.1368 20.0118 15.5842 19.9342C17.2653 19.8567 18.7573 19.4914 19.9866 18.3206C21.2186 17.1473 21.5995 15.7289 21.6809 14.1278C21.765 12.7494 21.7492 11.3809 21.7492 10ZM11.2474 15.131C8.26598 15.131 5.85985 12.8394 5.85985 10C5.85985 7.16058 8.26598 4.86903 11.2474 4.86903C14.2288 4.86903 16.6349 7.16058 16.6349 10C16.6349 12.8394 14.2288 15.131 11.2474 15.131ZM16.8555 5.8572C16.1594 5.8572 15.5973 5.32184 15.5973 4.65889C15.5973 3.99594 16.1594 3.46058 16.8555 3.46058C17.5516 3.46058 18.1137 3.99594 18.1137 4.65889C18.114 4.81631 18.0816 4.97222 18.0184 5.1177C17.9552 5.26317 17.8626 5.39535 17.7457 5.50666C17.6288 5.61798 17.49 5.70624 17.3373 5.76639C17.1845 5.82654 17.0208 5.8574 16.8555 5.8572Z" />
    </symbol>

    <symbol viewBox="0 0 14 14" id="icon-close">
        <path d="M14 1.41L12.59 0L7 5.59L1.41 0L0 1.41L5.59 7L0 12.59L1.41 14L7 8.41L12.59 14L14 12.59L8.41 7L14 1.41Z" />
    </symbol>

    <svg viewBox="0 0 20 17" id="icon-home">
        <path d="M8 17V11H12V17H17V9H20L10 0L0 9H3V17H8Z" />
    </svg>

</svg>