<svg width="30" height="30" viewBox="0 0 30 30" fill="none" xmlns="http://www.w3.org/2000/svg">
<path d="M8.6048 27.9998H4.64192C3.94124 27.9998 3.26926 27.7259 2.7738 27.2383C2.27834 26.7507 2 26.0894 2 25.3999V16.2999C2 15.6104 2.27834 14.949 2.7738 14.4614C3.26926 13.9739 3.94124 13.6999 4.64192 13.6999H8.6048M17.8515 11.0999V5.89998C17.8515 4.86564 17.434 3.87366 16.6908 3.14228C15.9476 2.41089 14.9397 2 13.8886 2L8.6048 13.6999V27.9998H23.5052C24.1424 28.0069 24.7606 27.7872 25.2461 27.381C25.7316 26.9749 26.0516 26.4098 26.1472 25.7898L27.9701 14.0899C28.0276 13.7173 28.002 13.3368 27.8952 12.9749C27.7885 12.6129 27.603 12.2781 27.3517 11.9937C27.1004 11.7093 26.7893 11.4821 26.4398 11.3277C26.0904 11.1734 25.7111 11.0957 25.3282 11.0999H17.8515Z" stroke="#02A0FC" stroke-width="3" stroke-linecap="round" stroke-linejoin="round"/>
</svg>
